<svg width="180" height="49" viewBox="0 0 180 49" fill="none" xmlns="http://www.w3.org/2000/svg">
<path d="M14.3262 15.5176C13.0957 15.5176 11.9941 15.7402 11.0215 16.1855C10.0605 16.6309 9.24609 17.2754 8.57812 18.1191C7.91016 18.9512 7.40039 19.9648 7.04883 21.1602C6.69727 22.3438 6.52148 23.6797 6.52148 25.168C6.52148 27.1602 6.80273 28.877 7.36523 30.3184C7.92773 31.748 8.7832 32.8496 9.93164 33.623C11.0801 34.3848 12.5332 34.7656 14.291 34.7656C15.3809 34.7656 16.4414 34.6602 17.4727 34.4492C18.5039 34.2383 19.5703 33.9512 20.6719 33.5879V37.1738C19.6289 37.584 18.5742 37.8828 17.5078 38.0703C16.4414 38.2578 15.2109 38.3516 13.8164 38.3516C11.1914 38.3516 9.01172 37.8066 7.27734 36.7168C5.55469 35.627 4.26562 34.0918 3.41016 32.1113C2.56641 30.1309 2.14453 27.8105 2.14453 25.1504C2.14453 23.2051 2.41406 21.4238 2.95312 19.8066C3.49219 18.1895 4.27734 16.7949 5.30859 15.623C6.33984 14.4395 7.61133 13.5312 9.12305 12.8984C10.6465 12.2539 12.3867 11.9316 14.3438 11.9316C15.6328 11.9316 16.8984 12.0781 18.1406 12.3711C19.3945 12.6523 20.5547 13.0566 21.6211 13.584L20.1445 17.0645C19.2539 16.6426 18.3223 16.2793 17.3496 15.9746C16.377 15.6699 15.3691 15.5176 14.3262 15.5176ZM42.8824 18.541V38H39.6305L39.068 35.3809H38.8395C38.4293 36.0488 37.9078 36.6055 37.275 37.0508C36.6422 37.4844 35.9391 37.8066 35.1656 38.0176C34.3922 38.2402 33.5777 38.3516 32.7223 38.3516C31.2574 38.3516 30.0035 38.1055 28.9605 37.6133C27.9293 37.1094 27.1383 36.3359 26.5875 35.293C26.0367 34.25 25.7613 32.9023 25.7613 31.25V18.541H29.9098V30.4766C29.9098 31.9883 30.2145 33.1191 30.8238 33.8691C31.4449 34.6191 32.4059 34.9941 33.7066 34.9941C34.9605 34.9941 35.9566 34.7363 36.6949 34.2207C37.4332 33.7051 37.9547 32.9434 38.2594 31.9355C38.5758 30.9277 38.734 29.6914 38.734 28.2266V18.541H42.8824ZM53.1047 38H48.9562V10.6484H53.1047V38ZM66.4031 35.0117C66.9422 35.0117 67.4754 34.9648 68.0027 34.8711C68.5301 34.7656 69.0105 34.6426 69.4441 34.502V37.6309C68.9871 37.8301 68.3953 38 67.6688 38.1406C66.9422 38.2812 66.1863 38.3516 65.4012 38.3516C64.2996 38.3516 63.3094 38.1699 62.4305 37.8066C61.5516 37.4316 60.8543 36.793 60.3387 35.8906C59.823 34.9883 59.5652 33.7402 59.5652 32.1465V21.6875H56.9109V19.8418L59.7586 18.3828L61.1121 14.2168H63.7137V18.541H69.2859V21.6875H63.7137V32.0938C63.7137 33.0781 63.9598 33.8105 64.452 34.291C64.9441 34.7715 65.5945 35.0117 66.4031 35.0117ZM90.5121 18.541V38H87.2602L86.6977 35.3809H86.4691C86.059 36.0488 85.5375 36.6055 84.9047 37.0508C84.2719 37.4844 83.5687 37.8066 82.7953 38.0176C82.0219 38.2402 81.2074 38.3516 80.352 38.3516C78.8871 38.3516 77.6332 38.1055 76.5902 37.6133C75.559 37.1094 74.768 36.3359 74.2172 35.293C73.6664 34.25 73.391 32.9023 73.391 31.25V18.541H77.5395V30.4766C77.5395 31.9883 77.8441 33.1191 78.4535 33.8691C79.0746 34.6191 80.0355 34.9941 81.3363 34.9941C82.5902 34.9941 83.5863 34.7363 84.3246 34.2207C85.0629 33.7051 85.5844 32.9434 85.8891 31.9355C86.2055 30.9277 86.3637 29.6914 86.3637 28.2266V18.541H90.5121ZM106.447 18.1719C106.775 18.1719 107.133 18.1895 107.52 18.2246C107.906 18.2598 108.24 18.3066 108.521 18.3652L108.135 22.2324C107.889 22.1621 107.584 22.1094 107.221 22.0742C106.869 22.0391 106.553 22.0215 106.271 22.0215C105.533 22.0215 104.83 22.1445 104.162 22.3906C103.494 22.625 102.902 22.9883 102.387 23.4805C101.871 23.9609 101.467 24.5645 101.174 25.291C100.881 26.0176 100.734 26.8613 100.734 27.8223V38H96.5859V18.541H99.8203L100.383 21.9688H100.576C100.963 21.2773 101.443 20.6445 102.018 20.0703C102.592 19.4961 103.248 19.0391 103.986 18.6992C104.736 18.3477 105.557 18.1719 106.447 18.1719ZM120.027 18.1719C121.761 18.1719 123.25 18.5293 124.492 19.2441C125.734 19.959 126.689 20.9727 127.357 22.2852C128.025 23.5977 128.359 25.168 128.359 26.9961V29.2109H115.369C115.416 31.0977 115.92 32.5508 116.88 33.5703C117.853 34.5898 119.213 35.0996 120.959 35.0996C122.201 35.0996 123.314 34.9824 124.298 34.748C125.295 34.502 126.32 34.1445 127.375 33.6758V37.0332C126.402 37.4902 125.412 37.8242 124.404 38.0352C123.396 38.2461 122.189 38.3516 120.783 38.3516C118.873 38.3516 117.191 37.9824 115.738 37.2441C114.296 36.4941 113.166 35.3809 112.345 33.9043C111.537 32.4277 111.132 30.5938 111.132 28.4023C111.132 26.2227 111.502 24.3711 112.24 22.8477C112.978 21.3242 114.015 20.1641 115.351 19.3672C116.687 18.5703 118.246 18.1719 120.027 18.1719ZM120.027 21.2832C118.726 21.2832 117.671 21.7051 116.863 22.5488C116.066 23.3926 115.597 24.6289 115.457 26.2578H124.316C124.304 25.2852 124.14 24.4238 123.824 23.6738C123.519 22.9238 123.05 22.3379 122.418 21.916C121.796 21.4941 121 21.2832 120.027 21.2832Z" fill="#01579B"/>
<path d="M143.091 38V12.3008H147.309V38H143.091ZM177.061 25.1152C177.061 27.1191 176.803 28.9473 176.288 30.5996C175.772 32.252 174.998 33.6641 173.967 34.8359C172.936 36.0078 171.635 36.8926 170.065 37.4902L176.182 44.1172H170.557L165.723 38.334C165.606 38.334 165.489 38.334 165.371 38.334C165.266 38.3457 165.161 38.3516 165.055 38.3516C163.004 38.3516 161.223 38.0352 159.711 37.4023C158.211 36.7695 156.963 35.8672 155.967 34.6953C154.983 33.5234 154.245 32.123 153.752 30.4941C153.26 28.8652 153.014 27.0605 153.014 25.0801C153.014 22.4316 153.448 20.123 154.315 18.1543C155.194 16.1738 156.524 14.6387 158.305 13.5488C160.098 12.4473 162.36 11.8965 165.09 11.8965C167.762 11.8965 169.983 12.4414 171.752 13.5312C173.522 14.6211 174.846 16.1562 175.725 18.1367C176.616 20.1055 177.061 22.4316 177.061 25.1152ZM157.444 25.1152C157.444 27.0957 157.713 28.8125 158.252 30.2656C158.791 31.707 159.618 32.8203 160.731 33.6055C161.856 34.3789 163.297 34.7656 165.055 34.7656C166.825 34.7656 168.266 34.3789 169.379 33.6055C170.493 32.8203 171.313 31.707 171.84 30.2656C172.368 28.8125 172.631 27.0957 172.631 25.1152C172.631 22.1035 172.028 19.748 170.821 18.0488C169.625 16.3379 167.715 15.4824 165.09 15.4824C163.332 15.4824 161.885 15.8691 160.748 16.6426C159.623 17.416 158.791 18.5234 158.252 19.9648C157.713 21.3945 157.444 23.1113 157.444 25.1152Z" fill="#FF5722"/>
</svg>
